<svg id="Layer_1" data-name="Layer 1" xmlns="http://www.w3.org/2000/svg" viewBox="0 0 344.36 243.95"><defs><style>.cls-1{fill:#4367b2;}.cls-2{fill:#fff;}</style></defs><title>logo</title><path class="cls-1" d="M339.41,204.77A93.79,93.79,0,0,1,215.55,293.6a92.94,92.94,0,0,1-16.4-7.41l10.14-14.62,61.92-89.27-6.8,0-59.93,86.38-10.09,14.55a94.93,94.93,0,0,1-13.86-11.07l10.18-14.86,0-.08,52-74.94,3.85-5.43L255,164.6h50L226.16,278.31A76.08,76.08,0,1,0,184.55,159.5h-21a93.76,93.76,0,0,1,175.87,45.27Z" transform="translate(-73.46 -111)"/><path class="cls-2" d="M236.11,182.3l12.28-17.7H160.92c-.84,1.74-1.61,3.52-2.33,5.32q-.9,2.22-1.69,4.52c-.88,2.57-1.65,5.2-2.31,7.86a93.81,93.81,0,0,0,10.78,70.91,94.55,94.55,0,0,0,11.2,14.92l10.4-15Zm-66.54,22.47A75.5,75.5,0,0,1,173,182.3h41.6l-37.87,54.59A75.71,75.71,0,0,1,169.57,204.77Z" transform="translate(-73.46 -111)"/><path class="cls-1" d="M73.46,319.07H86q7.84,0,11.19,1.58a7.14,7.14,0,0,1,4.18,5,53,53,0,0,1,.82,11.21,53.1,53.1,0,0,1-.82,11.21,7.16,7.16,0,0,1-4.18,5q-3.35,1.57-11.19,1.57H73.46Zm12.32,28.2a18,18,0,0,0,5.28-.49,2.76,2.76,0,0,0,1.65-2.37,52.59,52.59,0,0,0,.34-7.6,50.32,50.32,0,0,0-.36-7.58,2.87,2.87,0,0,0-1.68-2.4,18.1,18.1,0,0,0-5.23-.49h-3.4v20.93Z" transform="translate(-73.46 -111)"/><path class="cls-1" d="M119.08,354.54V319.07h25.16v7.27H128.05V333h13.71v7.27H128.05v7h16.19v7.27Z" transform="translate(-73.46 -111)"/><path class="cls-1" d="M182.08,354.54l-12.27-20.26h-.26v20.26H161V319.07h9.23l11.39,18.41h.26V319.07h8.61v35.47Z" transform="translate(-73.46 -111)"/><path class="cls-1" d="M238.42,354.54V332h-.36l-7.58,22.58H224.4L216.82,332h-.36v22.58h-8.35V319.07h12.32l7,20.47h.36l7-20.47H247v35.47Z" transform="translate(-73.46 -111)"/><path class="cls-1" d="M264.77,354.54V319.07h25.15v7.27H273.74V333h13.71v7.27H273.74v7h16.18v7.27Z" transform="translate(-73.46 -111)"/><path class="cls-1" d="M326.63,354.54,322,342.12h-6.24v12.42h-9V319.07h17c3.27,0,5.73.46,7.4,1.37a6.6,6.6,0,0,1,3.3,3.76,21,21,0,0,1,.8,6.42,19.51,19.51,0,0,1-1,6.45,6.58,6.58,0,0,1-3.78,4l5.46,13.5Zm-2.3-19.85a2.07,2.07,0,0,0,1.52-1.16,8,8,0,0,0,.37-2.86,9.73,9.73,0,0,0-.31-2.91,2,2,0,0,0-1.47-1.16,17.15,17.15,0,0,0-3.95-.31h-4.74V335h4.64A17,17,0,0,0,324.33,334.69Z" transform="translate(-73.46 -111)"/><path class="cls-1" d="M371.3,354.7c-1.77.17-3.43.25-5,.25-4.47,0-7.76-.54-9.9-1.65a8.13,8.13,0,0,1-4.22-5.36,44.48,44.48,0,0,1-1-11.13,43.31,43.31,0,0,1,1.05-11,8.51,8.51,0,0,1,4.26-5.42q3.19-1.69,9.84-1.7a44.71,44.71,0,0,1,4.9.29,34.29,34.29,0,0,1,4.28.69v6.81q-5.26-.52-7-.52a18.09,18.09,0,0,0-5.83.64,3.43,3.43,0,0,0-2,2.69,65,65,0,0,0,0,15.1,3.42,3.42,0,0,0,2,2.68,17.73,17.73,0,0,0,5.83.65,47.77,47.77,0,0,0,7.17-.52v6.91C374.54,354.32,373.07,354.52,371.3,354.7Z" transform="translate(-73.46 -111)"/><path class="cls-1" d="M391.63,354.08v-7q6.3.62,10.62.62a26.73,26.73,0,0,0,3.87-.21,4.11,4.11,0,0,0,1.91-.67,1.73,1.73,0,0,0,.64-1,8,8,0,0,0,.13-1.67,6.27,6.27,0,0,0-.2-1.86,1.35,1.35,0,0,0-.83-.8,11,11,0,0,0-2.16-.43l-6.55-.83a11,11,0,0,1-5.34-1.78,6.68,6.68,0,0,1-2.47-3.53,19.24,19.24,0,0,1-.65-5.41q0-4.59,1.7-7a8,8,0,0,1,4.57-3.12,29.41,29.41,0,0,1,7.29-.75c2.17,0,4.15.09,6,.26s3.77.45,5.9.82v6.86a95.32,95.32,0,0,0-10-.67c-2.75,0-4.54.21-5.37.62a1.49,1.49,0,0,0-.85.88,5.46,5.46,0,0,0-.18,1.59,6.47,6.47,0,0,0,.18,1.83,1.26,1.26,0,0,0,.78.78,10.8,10.8,0,0,0,2.08.44l7.53.92a12.67,12.67,0,0,1,3.74.93,5.65,5.65,0,0,1,2.45,2.27q1.49,2.22,1.49,7.06,0,5.06-1.6,7.61a7.32,7.32,0,0,1-4.27,3.32,25.63,25.63,0,0,1-7,.77A91.39,91.39,0,0,1,391.63,354.08Z" transform="translate(-73.46 -111)"/></svg>